<svg xmlns="http://www.w3.org/2000/svg" xmlns:xlink="http://www.w3.org/1999/xlink" width="177" height="150" viewBox="0 0 330 270">
        <defs id="SvgjsDefs6800">
          <linearGradient id="SvgjsLinearGradient6807">
            <stop id="SvgjsStop6808" stop-color="#8f5e25" offset="0"></stop>
            <stop id="SvgjsStop6809" stop-color="#fbf4a1" offset="0.5"></stop>
            <stop id="SvgjsStop6810" stop-color="#8f5e25" offset="1"></stop>
          </linearGradient>
          <linearGradient id="SvgjsLinearGradient6811">
            <stop id="SvgjsStop6812" stop-color="#8f5e25" offset="0"></stop>
            <stop id="SvgjsStop6813" stop-color="#fbf4a1" offset="0.5"></stop>
            <stop id="SvgjsStop6814" stop-color="#8f5e25" offset="1"></stop>
          </linearGradient>
          <linearGradient id="SvgjsLinearGradient6815">
            <stop id="SvgjsStop6816" stop-color="#d9c57a" offset="0"></stop>
            <stop id="SvgjsStop6818" stop-color="#fbf4a1" offset="0.5"></stop>
            <stop id="SvgjsStop6820" stop-color="#d9c57a" offset="1"></stop>
          </linearGradient>
          <linearGradient id="ecoNaturalGradient" gradientTransform="rotate(90)">
            <stop offset="0" stop-color="rgba(6,78,59)" stop-opacity="0"></stop>
            <stop offset="0.5" stop-color="rgba(6,78,59)" stop-opacity="0.6"></stop>
            <stop offset="1" stop-color="rgba(6,78,59)" stop-opacity="0.8"></stop>
          </linearGradient>
          <linearGradient id="sensesGradient" gradientTransform="rotate(90)">
            <stop offset="0" stop-color="rgba(6,78,59)" stop-opacity="0.8"></stop>
            <stop offset="0.5" stop-color="rgba(6,78,59)" stop-opacity="0.6"></stop>
            <stop offset="1" stop-color="rgba(6,78,59)" stop-opacity="0"></stop>
          </linearGradient>
        </defs>
        <g id="SvgjsG6801" featurekey="JjiT9w-0" transform="matrix(0.5351859139422277,0,0,0.5351859139422277,40.36705373161586,2.1458743820108848)" fill="url(#SvgjsLinearGradient6807)">
          <g xmlns="http://www.w3.org/2000/svg">
            <g>
              <g>
                <path d="M250.6,478.2c-3.93-16.37-6.86-32.25-6.54-49.18c0.32-16.79,2.99-33.46,7.06-49.72c8.07-32.26,21.04-63.31,33.66-94     c7.27-17.67,15.4-35.02,22.43-52.79c0.46-1.17-1.46-1.97-2.03-0.86c-7.74,15.12-14.16,31.01-20.73,46.66     c-6.77,16.11-13.32,32.31-19.52,48.64c-11.89,31.3-22.39,63.76-23.67,97.49c-0.68,17.89,0.63,37.53,7.54,54.25     C249.25,479.77,250.89,479.4,250.6,478.2L250.6,478.2z"></path>
              </g>
              <g>
                <path d="M274.14,518.53c11.63-19.65,16.68-43.81,16.35-66.5c-0.36-24.71-7.65-48.64-16.45-71.52     c-9.29-24.17-20.13-47.74-28.7-72.19c-8.58-24.49-14.41-49.82-16.87-75.67c-2.76-28.98-0.78-57.45,3.38-86.17     c0.23-1.56-2.08-2.29-2.43-0.67c-10.2,47.34-6.21,98.97,7.34,145.21c7.32,24.99,17.8,48.88,27.69,72.92     c9.34,22.71,18.46,45.92,22.06,70.36c4.31,29.26-1.54,56.91-13.3,83.69C272.94,518.61,273.77,519.14,274.14,518.53L274.14,518.53     z"></path>
              </g>
              <g>
                <path d="M287.26,425.94c-3.32-9.61-5.28-19.32-4.22-29.53c1-9.62,4.3-18.81,7.54-27.86c6.31-17.64,11.31-35.8,11.22-54.69     c-0.01-1.18-1.74-1.16-1.82,0c-0.74,10.71-1.84,21.27-4.34,31.74c-2.31,9.67-5.88,18.89-9.03,28.3     c-5.75,17.12-8.59,35.57-0.11,52.36C286.7,426.69,287.42,426.39,287.26,425.94L287.26,425.94z"></path>
              </g>
              <g>
                <path d="M287.77,427.35c-0.72-10.47,6.59-20.09,10.47-29.43c3.91-9.4,6.98-19.15,8.78-29.17c3.28-18.21,2.71-38.37-4.99-55.45     c-0.43-0.95-2.03-0.28-1.69,0.71c6.8,19.83,8.1,39.82,3.42,60.34c-2.25,9.86-5.65,19.39-9.72,28.63     c-3.43,7.81-8.04,15.54-6.96,24.37C287.12,427.78,287.8,427.81,287.77,427.35L287.77,427.35z"></path>
              </g>
              <g>
                <path d="M240.73,296.99c-10.44-2.11-19.15-11.47-26.3-18.93c-7.37-7.68-13.9-16.17-19.04-25.5c-5.16-9.37-8.67-19.41-10.54-29.93     c-2.08-11.68-2.37-23.92-6.28-35.2c-0.38-1.1-2.02-0.67-1.75,0.48c3.03,12.85,3.95,26,6.7,38.88     c2.28,10.66,6.48,20.82,12.11,30.15c5.45,9.03,12.19,17.29,19.75,24.63c6.29,6.1,15.7,16.58,25.26,16.1     C241.01,297.65,241.14,297.07,240.73,296.99L240.73,296.99z"></path>
              </g>
              <g>
                <path d="M178.1,189.51c1.98,7.72,5.92,15.04,9.73,22c3.74,6.83,8.16,13.45,14.02,18.65c6.48,5.75,14.55,9.54,19.19,17.16     c4.39,7.21,5.64,15.62,7.31,23.74c0.22,1.07,2.09,0.85,1.94-0.26c-0.97-7.24-2.34-14.66-5.51-21.3     c-3.21-6.71-8.36-11.18-14.33-15.42c-7.65-5.44-13.63-11.31-18.61-19.3c-4.9-7.87-10.1-16.63-12.88-25.49     C178.78,188.73,177.96,188.95,178.1,189.51L178.1,189.51z"></path>
              </g>
              <g>
                <path d="M312.23,173.89c-1.41-0.19-3.3-0.02-3.61,1.73c-0.27,1.49,1.14,2.39,2.44,2.52c1.62,0.17,3.53-0.43,4.07-2.14     c0.52-1.66-0.92-3.38-2.65-2.77c-0.94,0.33-0.74,1.6,0.23,1.69c0.51,0.05,0.29,0.63,0.08,0.86c-0.34,0.37-1.11,0.43-1.57,0.4     c-0.57-0.03-0.78,0.01-0.8-0.56c-0.03-0.83,1.09-0.8,1.7-0.84C312.59,174.74,312.77,173.96,312.23,173.89L312.23,173.89z"></path>
              </g>
              <g>
                <path d="M312.22,172.92c-4.53-2.92-3.6-10.87-1.04-14.85c1.35-2.09,1.3-2,3.95-0.97c2.17,0.04,3.08,1.08,2.73,3.13     c-0.07,0.74-0.15,1.49-0.22,2.23c-0.49,2.37-1.73,4.52-2.74,6.69c-0.47,1.01,0.91,1.86,1.52,0.89c2.46-3.93,4.74-9.1,2.6-13.69     c-1.31-2.79-3.94-4.27-6.66-2.46c-5.66,3.76-8.07,16.94-0.77,20.13C312.31,174.34,312.92,173.37,312.22,172.92L312.22,172.92z"></path>
              </g>
              <g>
                <path d="M313.96,173.67c0.78-2.24,2.23-4.07,4.28-5.29c1.91-1.14,6.4-2.38,8.44-0.93c1.05,0.06,1.39,0.68,1,1.87     c0.57,1.27,0.18,2.09-1.16,2.44c-0.95,0.54-2.05,0.91-3.09,1.23c-2.16,0.66-4.37,0.86-6.61,0.98c-1.11,0.06-1.09,1.61,0,1.71     c3.81,0.34,8.56-0.44,11.66-2.86c1.87-1.46,3.04-4.06,1.01-5.91c-2.49-2.26-7-1.87-9.9-0.8c-3.34,1.24-5.65,3.88-6.35,7.36     C313.13,173.95,313.8,174.13,313.96,173.67L313.96,173.67z"></path>
              </g>
              <g>
                <path d="M311.3,173.39c-1.47-3.07-4.6-5.55-7.89-6.41c-2.23-0.58-5.94-0.84-7.2,1.64c-1.33,2.63,0.87,6.36,2.74,8.14     c2.47,2.35,6.18,3.3,9.43,2.26c1.17-0.37,0.66-1.94-0.49-1.78c-2.25,0.3-4.43,0.22-6.41-1.05c-2.01-1.28-5.96-6.62-1.33-7.64     c4.12-0.91,7.87,2.81,10.47,5.37C310.98,174.28,311.51,173.83,311.3,173.39L311.3,173.39z"></path>
              </g>
              <g>
                <path d="M306.96,177.28c-3.23,1.39-5.84,3.89-7.24,7.13c-1.04,2.41-1.5,5.77,1.65,6.7c3.09,0.91,6.27-1.99,8.02-4.19     c2.18-2.73,3.83-6.58,2.5-10.03c-0.33-0.87-1.75-0.83-1.72,0.23c0.11,4.58-1.78,9.11-5.96,11.44c-1.95,1.08-3.35-0.88-3.18-2.77     c0.1-1.12,0.91-2.38,1.53-3.3c1.25-1.86,3.01-3.22,5.01-4.18C308.27,177.97,307.65,176.98,306.96,177.28L306.96,177.28z"></path>
              </g>
              <g>
                <path d="M310.75,178.08c-0.5,5.18,3.28,13.53,9.79,10.48c6.68-3.13,0.66-10.37-3.85-12.12c-1.01-0.39-1.44,1.08-0.69,1.63     c1.45,1.05,2.9,1.99,4.08,3.35c0.72,0.84,1.83,2.2,1.49,3.42c-0.35,1.25-1.74,2.04-2.91,2.27c-4.73,0.91-6.87-5.43-6.64-9.05     C312.08,177.26,310.83,177.28,310.75,178.08L310.75,178.08z"></path>
              </g>
              <g>
                <path d="M336.1,192.75c-1.79-1.29-4.44-0.99-5.72,0.89c-1.38,2.04-0.62,4.79,1.53,5.92c2.02,1.06,4.86,0.29,5.32-2.15     c0.47-2.52-1.58-4.94-3.76-5.89c-1.11-0.48-2.05,0.99-0.97,1.66c0.95,0.59,1.88,1.39,2.34,2.44c0.63,1.42-0.21,2.8-1.85,2.19     c-3.11-1.15-0.56-5.85,2.41-3.87C336.16,194.45,336.81,193.26,336.1,192.75L336.1,192.75z"></path>
              </g>
              <g>
                <path d="M333.61,193.14c-0.69-4.06-4.6-10.38-0.5-13.56c3.77-2.92,3.82,2.95,3.7,5.08c-0.13,2.21-0.6,4.37-0.72,6.58     c-0.05,0.93,1.33,1.06,1.59,0.21c1.08-3.53,3.54-15.94-3.63-14.68c-2.7,0.47-4.38,3.01-4.69,5.6c-0.47,3.97,1.97,7.5,3.33,11.03     C332.9,193.97,333.71,193.75,333.61,193.14L333.61,193.14z"></path>
              </g>
              <g>
                <path d="M337.29,192.74c-0.52-1.06,3.75-3.93,4.25-4.26c1.75-1.19,7.23-3.68,6.34,0.84c-0.65,3.29-6.57,4.96-9.15,6.2     c-0.95,0.45-0.25,1.82,0.68,1.62c3.26-0.69,7.26-2.64,9.41-5.26c1.65-2.01,1.76-5.18-0.8-6.5c-2.75-1.42-5.63,0.44-7.75,2.13     c-1.13,0.9-5.23,3.96-3.59,5.71C336.99,193.54,337.48,193.12,337.29,192.74L337.29,192.74z"></path>
              </g>
              <g>
                <path d="M340.23,196.38c1.85-1.27,5.75,0.07,7.82,0.43c0.55,0.1,2.97,0.27,3.39,0.7c-0.21,1.73-0.42,3.45-0.63,5.18     c-0.8,0.02-1.59-0.04-2.38-0.17c-2.31-0.26-4.81-0.57-6.76-1.89c-1.67-1.13-2.56-2.9-3.9-4.35c-0.55-0.59-1.67,0.02-1.39,0.81     c1.36,3.79,4.37,6.13,8.24,7c3.19,0.72,9.52,1.97,11.4-1.83c1.55-3.15-1.93-5.95-4.64-6.63c-2.84-0.71-9.37-2.52-11.69,0.04     C339.36,196.03,339.79,196.68,340.23,196.38L340.23,196.38z"></path>
              </g>
              <g>
                <path d="M333.31,198.29c-4.6,2.71-2.07,12,2.09,14.01c2.19,1.06,4.67,0.46,5.83-1.75c1.44-2.74,0.74-6.57-0.89-9.05     c-0.56-0.84-2.08-0.33-1.72,0.72c0.62,1.79,1.21,3.63,1.05,5.54c-0.23,2.75-2.85,3.66-4.69,1.49c-2.06-2.42-3.19-7.62-1.08-10.2     C334.24,198.65,333.82,197.99,333.31,198.29L333.31,198.29z"></path>
              </g>
              <g>
                <path d="M332.45,192.69c-2.76-4.98-12.93-3.29-16.22,0.35c-1.66,1.83-2.02,4.49,0.1,6.11c2.75,2.12,7.56,1.66,10.72,1.11     c1.09-0.19,0.85-2.08-0.26-1.95c-2.01,0.23-3.95,0.36-5.96,0.12c-0.65-0.04-1.29-0.14-1.92-0.31c-0.57-1.03-1.14-2.07-1.72-3.1     c0.07-0.97,2.52-2.14,3.31-2.45c3.09-1.23,8.75-1.94,11.32,0.62C332.14,193.51,332.67,193.09,332.45,192.69L332.45,192.69z"></path>
              </g>
              <g>
                <path d="M330.86,198.7c0.06-0.07,0.12-0.13,0.18-0.2c0.37-0.41-0.19-0.97-0.6-0.6c-0.07,0.06-0.13,0.12-0.2,0.18     C329.8,198.46,330.48,199.13,330.86,198.7L330.86,198.7z"></path>
              </g>
              <g>
                <path d="M330.48,189.6c-2.12-0.51-4.83-2.09-6.19-3.82c-1.11-1.4-1.15-3.18-0.19-4.74c1.21-1.99,3.11-1.16,4.49,0.11     c0.71,0.66,1.89-0.18,1.37-1.05c-0.94-1.58-2.68-2.59-4.55-2.3c-2.28,0.35-3.48,2.6-3.79,4.72c-0.65,4.39,4.8,7.97,8.76,7.89     C330.83,190.4,330.95,189.71,330.48,189.6L330.48,189.6z"></path>
              </g>
              <g>
                <path d="M302.72,206.42c-0.12-0.67-2.08,0.38-2.27,0.55c-0.67,0.57-1.11,1.38-1.18,2.26c-0.15,2.01,1.58,3.73,3.54,3.8     c1.9,0.07,3.72-1.29,4.12-3.16c0.41-1.88-0.74-4.02-2.65-4.48c-1.07-0.26-1.53,1.08-0.71,1.69c0.86,0.64,1.63,1.81,1,2.89     c-0.65,1.11-2.21,1.32-3.08,0.37c-0.47-0.52-0.62-1.25-0.27-1.87c0.41-0.74,1.08-0.7,1.76-0.97c0.6-0.24,0.96-0.69,0.76-1.35     C303.54,205.48,302.6,205.76,302.72,206.42L302.72,206.42z"></path>
              </g>
              <g>
                <path d="M303.94,207.19c1.15-4.88,4.23-11.22,9.44-12.94c0.42-0.08,0.84-0.16,1.26-0.24c0.73,0.76,1.47,1.53,2.2,2.29     c0.23,0.82-0.81,2.3-1.3,2.9c-0.75,0.92-1.68,1.73-2.57,2.51c-2.3,2.03-4.78,3.58-7.51,4.94c-0.91,0.45-0.28,1.97,0.69,1.65     c4.19-1.41,8.37-4.52,11.08-8.01c1.77-2.27,2.56-6.23-0.6-7.79c-3.18-1.56-6.7,1.33-8.76,3.47c-2.91,3.02-4.76,6.87-5.14,11.05     C302.67,207.72,303.78,207.86,303.94,207.19L303.94,207.19z"></path>
              </g>
              <g>
                <path d="M304.99,204.68c0.07-3.85-0.57-8.87-3.05-11.99c-1.59-1.99-4.44-3.16-6.76-1.65c-5.78,3.75,3.21,14.19,6.59,16.49     c0.78,0.53,1.58-0.62,0.98-1.27c-1.48-1.6-3.04-3.12-4.27-4.93c-0.84-1.24-3.17-4.31-2.87-5.81c1.11-0.94,2.23-1.88,3.34-2.83     c0.85,0.48,1.51,1.16,1.99,2.02c0.66,1.08,1.04,2.38,1.38,3.58c0.61,2.16,0.95,4.36,1.32,6.57     C303.76,205.65,304.97,205.43,304.99,204.68L304.99,204.68z"></path>
              </g>
              <g>
                <path d="M299.79,206c-4.49-0.47-17.12,1.06-16.7,7.84c0.17,2.8,3.57,3.64,5.85,3.6c4.18-0.08,8.72-2.09,12.18-4.33     c0.89-0.58,0.34-2.24-0.77-1.82c-2.15,0.82-4.17,1.95-6.33,2.75c-1.07,0.39-2.18,0.75-3.31,0.96c-1.17,0.27-2.35,0.3-3.53,0.1     c-1.6-1.9-1.67-3.27-0.21-4.12c3.07-3.32,9.02-2.7,12.94-4.13C300.38,206.68,300.28,206.05,299.79,206L299.79,206z"></path>
              </g>
              <g>
                <path d="M301.71,213.62c0.2-0.37,0.22-0.4,0.25-0.81c0.03-0.43-0.5-0.7-0.85-0.49c-4,2.47-6.85,18.62,0.2,18.53     c3.3-0.04,5.35-4.17,6.03-6.9c0.92-3.69,0.24-8.07-2.34-10.95c-0.78-0.87-2.06,0.24-1.56,1.2c1.88,3.62,3.53,9.65-0.11,12.99     c-3.97,3.65-4.14-3.53-4.07-5.43c0.09-2.65,0.65-6.08,1.87-8.49C300.92,213.67,301.49,214.01,301.71,213.62L301.71,213.62z"></path>
              </g>
              <g>
                <path d="M304.07,212.09c3.15,4.63,10.56,8.42,15.04,2.95c4.56-5.57-5.03-9.41-9.25-9.27c-0.98,0.03-1.24,1.49-0.24,1.75     c1.72,0.45,3.5,0.83,5.12,1.58c0.68,0.31,1.53,0.66,2.02,1.24c1.38,1.61,0.32,4.17-1.61,4.88c-4.13,1.51-7.41-1.16-10.26-3.76     C304.47,211.08,303.72,211.58,304.07,212.09L304.07,212.09z"></path>
              </g>
              <g>
                <path d="M324.35,223.99c-0.95-0.91-2.43-1.05-3.4-0.04c-1.05,1.09-0.68,2.62,0.18,3.69c0.93,1.15,2.53,1.21,3.38-0.11     c0.87-1.36,0.01-3.01-1.26-3.71c-0.71-0.39-1.55,0.4-1.13,1.13c0.18,0.3,1.08,1.81,0.34,1.46c-1.17-0.56-0.18-2.58,1.25-1.59     C324.21,225.15,324.77,224.4,324.35,223.99L324.35,223.99z"></path>
              </g>
              <g>
                <path d="M321.77,222.93c-0.49-2.13-0.59-4.27-0.32-6.44c0.16-1.28,0.76-5.84,2.06-6.42c0.72,0.32,1.44,0.63,2.16,0.95     c0.02,0.67-0.02,1.33-0.14,1.98c-0.12,1.01-0.31,2.01-0.56,3c-0.52,2.07-1.28,4.06-2.09,6.03c-0.42,1.02,1.26,1.71,1.77,0.75     c1.2-2.24,6.6-17.36-0.42-15.99c-2.74,0.54-3.93,5.03-4.42,7.27c-0.65,2.96-1.01,6.93,1.1,9.37     C321.26,223.84,321.87,223.4,321.77,222.93L321.77,222.93z"></path>
              </g>
              <g>
                <path d="M323.94,225.65c0.85-3.93,7.55-7.71,11.04-8.54c0.66-0.09,1.32-0.18,1.99-0.28c1.23,0.94,2.47,1.87,3.7,2.81     c0.5,1.38-1.37,3.4-2.28,4.28c-2.1,2.04-4.84,2.78-7.66,3.11c-1.24,0.15-1.31,1.94,0,1.99c3.97,0.15,8.14-1.72,10.48-5     c1.73-2.42,2.33-6.08-0.31-8.13c-2.69-2.09-7.11-0.68-9.76,0.74c-3.03,1.63-7.85,5.07-8.48,8.65     C322.51,226.12,323.76,226.49,323.94,225.65L323.94,225.65z"></path>
              </g>
              <g>
                <path d="M320.61,224.17c-5.26-3.6-14.71,2.35-14.29,8.66c0.21,3.22,3.37,3.73,6.02,3.16c3.7-0.8,7.31-3.22,9.36-6.39     c0.63-0.98-0.75-1.94-1.56-1.2c-1.44,1.32-2.86,2.68-4.54,3.69c-1.81,1.09-7,3.6-7.04-0.31c-0.02-1.99,2.19-3.92,3.61-5.01     c2.36-1.81,4.97-2.95,7.9-1.67C320.69,225.37,321.19,224.57,320.61,224.17L320.61,224.17z"></path>
              </g>
              <g>
                <path d="M320.96,228.12c-2.29,2.27-1.31,6.11-0.32,8.8c1.15,3.14,3.59,5.53,7.08,5.64c3.38,0.11,5.63-2.52,5.69-5.8     c0.06-3.83-2.03-7.3-5.14-9.37c-0.92-0.61-2.01,0.79-1.19,1.54c1.68,1.52,3.11,3.36,3.73,5.57c0.89,3.15-0.44,6.65-4.26,5.78     c-2.69-0.61-3.88-2.93-4.64-5.37c-0.61-1.96-1.42-4.34-0.17-6.19C322.06,228.25,321.36,227.73,320.96,228.12L320.96,228.12z"></path>
              </g>
              <g>
                <path d="M308.83,215.9c-1.61,1.17-0.81,4.69,0.23,6.05c1.34,1.76,3.88,2.13,5.92,1.74c0.86-0.17,0.83-1.52,0-1.71     c-1.44-0.33-3.47-0.17-4.44-1.48c-1-1.35-0.23-3.29-1.21-4.54C309.22,215.83,308.96,215.8,308.83,215.9L308.83,215.9z"></path>
              </g>
              <g>
                <path d="M343.03,211.48c0.8-2.01,11.26,0.85,7.17,4.29c-2.19,1.84-5.07,1.64-7.68,2.19c-0.92,0.19-0.73,1.4,0,1.68     c3.64,1.38,12.95-1.69,10.47-6.89c-1.09-2.3-4.18-3.33-6.53-3.55c-1.55-0.15-4.45-0.04-4.38,2.16     C342.11,211.92,342.84,211.97,343.03,211.48L343.03,211.48z"></path>
              </g>
              <g>
                <path d="M342.57,220.37c-0.1-1.25,4.11,0.31,4.43,0.47c1.31,0.67,3.05,1.83,3.44,3.37c0.45,1.78-1.25,2.93-2.81,3.13     c-1.74,0.22-3.4-0.74-5-1.24c-0.99-0.31-1.56,1.13-0.69,1.65c2.13,1.27,5,2.14,7.42,1.2c1.82-0.71,3.22-2.4,3.05-4.42     c-0.38-4.51-6.95-7.1-10.66-5.32c-0.2,0.1-0.28,0.36-0.23,0.57c0.06,0.24,0.12,0.49,0.17,0.73     C341.81,220.97,342.61,220.88,342.57,220.37L342.57,220.37z"></path>
              </g>
              <g>
                <path d="M339.34,226.15c2.1,2.27,6.07,5.47,3.9,8.99c-0.89,1.44-2.79,2.39-4.41,2.6c-2.29,0.29-3.53-1.15-5.23-2.31     c-0.88-0.6-1.68,0.67-1.07,1.39c3.18,3.8,8.86,3.92,11.98-0.15c3.29-4.28-0.84-9.15-4.57-11.31     C339.45,225.07,338.96,225.74,339.34,226.15L339.34,226.15z"></path>
              </g>
              <g>
                <path d="M338.43,182.05c1.11-2.38,6.52-4.88,8.82-4.02c4.23,1.58,1.84,5.08,0.07,7.52c-0.63,0.87,0.71,1.79,1.44,1.11     c3.4-3.17,4.39-8.33-0.65-10.37c-2.34-0.94-4.37-0.02-6.42,1.17c-1.73,1-3.99,2.14-4.05,4.38     C337.62,182.24,338.25,182.45,338.43,182.05L338.43,182.05z"></path>
              </g>
              <g>
                <path d="M331.49,168.68c-0.17-1.74,3.36-2.61,4.48-2.69c1.75-0.12,3.82,0.38,4.68,2.04c1.81,3.47-2.46,6.47-5.02,7.74     c-0.81,0.4-0.2,1.49,0.57,1.36c4.39-0.71,8.98-7.61,4.84-11.16c-1.74-1.49-4.34-1.79-6.49-1.2c-1.56,0.43-4.78,1.96-3.92,4.04     C330.8,169.2,331.54,169.22,331.49,168.68L331.49,168.68z"></path>
              </g>
              <g>
                <path d="M320.82,162.24c-0.77-1.16,0.4-2.14,1.51-2.42c1.62-0.41,3.4-0.55,5.03-0.08c3.23,0.93,4.98,3.68,4.33,6.98     c-0.17,0.85,1.05,1.5,1.49,0.63c2.31-4.54-2.07-9.12-6.47-9.68c-2.15-0.27-5.26,0-7.07,1.34c-0.58,0.43-1.1,1.05-1.07,1.83     c0.05,1.14,0.94,1.22,1.58,1.92C320.48,163.1,321.09,162.64,320.82,162.24L320.82,162.24z"></path>
              </g>
              <g>
                <path d="M298.57,173.55c-1.7-0.19-4.39-0.25-5.66,1.16c-1.19,1.32-0.52,3.19,0.4,4.44c2.17,2.96,6.52,4.43,9.92,2.88     c1.03-0.47,0.23-1.84-0.71-1.69c-2.2,0.35-4.31,0.27-6.21-1.02c-0.78-0.52-2.08-1.59-2.15-2.63c-0.14-2.02,3.11-2.02,4.41-1.93     C299.36,174.82,299.33,173.64,298.57,173.55L298.57,173.55z"></path>
              </g>
              <g>
                <path d="M298.23,181.27c-2.94-1.93-8.03,0.9-8.96,4c-1.21,4.03,1.9,7.69,5.63,8.72c1.22,0.34,1.64-1.41,0.51-1.86     c-2.3-0.92-4.48-2.67-4.4-5.38c0.05-1.49,0.77-2.68,2.01-3.48c1.17-0.75,3.32-1.87,4.73-1.18     C298.3,182.37,298.75,181.61,298.23,181.27L298.23,181.27z"></path>
              </g>
              <g>
                <path d="M294.68,194.73c-3.43-2.55-7.76-0.24-8.75,3.62c-0.93,3.63,1.3,10.54,6.09,9.25c0.89-0.24,0.65-1.48-0.21-1.54     c-7.28-0.51-4.21-14.86,2.29-10.35C294.71,196.13,295.25,195.16,294.68,194.73L294.68,194.73z"></path>
              </g>
              <g>
                <path d="M292.19,216.25c-4.23,0.4-7.26,5.83-6.58,9.83c0.91,5.35,7.22,4.1,10.48,2.02c0.67-0.43,0.25-1.64-0.57-1.35     c-2.7,0.97-8.33,3.22-8.43-1.94c-0.06-3.15,1.9-7.24,5.21-7.81C292.7,216.92,292.61,216.21,292.19,216.25L292.19,216.25z"></path>
              </g>
              <g>
                <path d="M296.16,227.37c-1.23,2.57-2.18,5.63,0.27,7.8c1.85,1.64,5.28,2.62,7.52,1.27c0.89-0.54,0.32-2.01-0.72-1.7     c-1.78,0.53-3.72,0.32-5.29-0.74c-2.23-1.5-1.49-4.08-0.76-6.19C297.39,227.21,296.44,226.8,296.16,227.37L296.16,227.37z"></path>
              </g>
              <g>
                <path d="M318.37,207.36c-0.99-1.03-1.53-2.14-0.31-3.21c0.78-0.69,2.03-1.04,3.05-1.06c2.33-0.05,3.56,1.53,3.33,3.72     c-0.09,0.89,1.36,1.29,1.72,0.47c1.78-4-3-6.67-6.4-5.89c-1.66,0.38-3.49,1.35-3.99,3.1c-0.5,1.76,0.59,3.09,2.3,3.38     C318.36,207.91,318.59,207.59,318.37,207.36L318.37,207.36z"></path>
              </g>
              <g>
                <path d="M331.95,207.47c-3.25-1.23-4.9,4.03-5.14,6.3c-0.15,1.4,0.16,2.63,1.53,3.25c1.46,0.66,3.46,0.64,4.85-0.14     c0.72-0.4,0.34-1.41-0.4-1.46c-0.78-0.06-1.56,0.06-2.34,0.01c-1.82-0.11-1.89-1.34-1.58-2.82c0.38-1.83,1.06-3.92,3.08-4.42     C332.33,208.1,332.27,207.6,331.95,207.47L331.95,207.47z"></path>
              </g>
              <g>
                <path d="M345.48,204.91c2.2,0.84,2.98,2.29,2.33,4.55c-0.28,0.95,0.98,1.35,1.5,0.63c1.91-2.58-0.65-6.85-3.84-5.96     C345.07,204.24,345.12,204.77,345.48,204.91L345.48,204.91z"></path>
              </g>
              <g>
                <path d="M341.83,210.2c0.31,0,0.63,0,0.94,0c0.44,0,0.44-0.68,0-0.68c-0.31,0-0.63,0-0.94,0     C341.39,209.52,341.39,210.2,341.83,210.2L341.83,210.2z"></path>
              </g>
              <g>
                <path d="M341.36,172.79c-0.08-0.06-0.15-0.12-0.23-0.18c-0.08,0.2-0.16,0.39-0.24,0.59c1.76-0.76,3.36,0.13,3.57,2.05     c0.09,0.79,1.29,1.11,1.49,0.2c0.72-3.2-3.42-5.67-5.7-3.08c-0.17,0.19-0.23,0.56,0,0.74c0.29,0.23,0.52,0.39,0.89,0.46     C341.67,173.69,341.85,172.99,341.36,172.79L341.36,172.79z"></path>
              </g>
              <g>
                <path d="M323.8,174.88c0.64-0.02,0.78,0.89,0.74,1.31c-0.04,0.4-0.14,0.78-0.31,1.15c-0.29,0.61-0.74,1.16-1.21,1.64     c-0.5,0.52,0.14,1.39,0.78,1.01c1.48-0.86,2.31-2.52,2.21-4.24c-0.07-1.28-1.14-2.58-2.47-1.84     C323.09,174.16,323.28,174.9,323.8,174.88L323.8,174.88z"></path>
              </g>
              <g>
                <path d="M313.84,185.89c-1.21-2.25-5.13,0.36-6.14,1.61c-1.85,2.3-1.9,5.96,0.09,8.19c0.64,0.72,1.71-0.2,1.29-1     c-0.95-1.81-1.53-3.61-0.57-5.58c0.41-0.84,1.03-1.53,1.78-2.07c0.58-0.42,2.35-1.56,3-0.73     C313.55,186.64,314.02,186.23,313.84,185.89L313.84,185.89z"></path>
              </g>
              <g>
                <path d="M329.77,199.34c-4.95,0.21-4.17,9.02,0.77,8.69c0.74-0.05,1.2-1.14,0.41-1.52c-1.16-0.56-2.39-1.16-2.73-2.54     c-0.4-1.67,0.83-2.73,1.9-3.77C330.44,199.91,330.21,199.32,329.77,199.34L329.77,199.34z"></path>
              </g>
              <g>
                <path d="M328.82,200.36c0.88-0.64,1.8-0.69,2.79-0.23c0.53,0.25,0.97-0.47,0.46-0.79c-1.21-0.77-2.68-0.51-3.68,0.46     C328.1,200.08,328.48,200.61,328.82,200.36L328.82,200.36z"></path>
              </g>
              <g>
                <path d="M210.72,79.1c-3.2-0.15-6.56,1.25-8.34,4.01c-1.84,2.86,0.83,5.15,3.62,5.43c3.03,0.31,6.77,0.11,8.06-3.18     c1.17-2.99-0.84-6.57-4.16-6.63c-1.26-0.02-1.3,1.63-0.28,2.04c2,0.8,3.63,3.12,1.56,4.95c-1.22,1.08-3.38,0.96-4.88,0.88     c-1.45-0.08-3.27-1.17-2.34-2.87c0.39-0.71,1.27-1.38,1.91-1.81c1.45-0.96,3.12-1.33,4.84-1.27     C211.72,80.69,211.71,79.15,210.72,79.1L210.72,79.1z"></path>
              </g>
              <g>
                <path d="M208.31,71.66c-3.4-1.38-7.53-0.66-10.14,2.02c-2.87,2.96-0.91,6.42,2.69,7.27c3.44,0.82,8.47-0.19,9.29-4.22     c0.72-3.54-2.56-6.6-6.02-5.51c-1.02,0.32-0.9,2.03,0.26,1.95c2.89-0.18,5.13,3.11,2.13,5.03c-1.69,1.08-4.26,1.22-6.09,0.53     c-3.76-1.42-0.75-4.63,1.34-5.64c1.97-0.95,4.2-1.08,6.32-0.63C208.62,72.58,208.8,71.86,208.31,71.66L208.31,71.66z"></path>
              </g>
              <g>
                <path d="M199.83,78.42c-4.18-0.9-8.85,0.7-11.14,4.46c-2.51,4.12,0.01,7.92,4.63,8.21c4.53,0.28,9.54-3.05,9.42-7.96     c-0.11-4.53-4.65-7.54-8.85-6.01c-1.19,0.44-0.74,2.19,0.53,1.92c3.2-0.68,6.71,1.61,5.95,5.23c-0.65,3.11-4.08,4.89-7.05,4.75     c-1.77-0.08-3.75-0.91-3.82-2.97c-0.04-1.45,1.11-3.01,2.1-3.96c2.09-2,5.02-2.79,7.84-2.27     C200.35,79.98,200.75,78.62,199.83,78.42L199.83,78.42z"></path>
              </g>
              <g>
                <path d="M198.29,89.49c-3.19,2.03-7.26,5.35-6.65,9.65c0.68,4.79,6.27,4.11,9.3,2.16c3.08-1.97,6.81-6.38,5.23-10.33     c-1.87-4.65-7.45-3.3-10.95-1.86c-1.14,0.47-0.69,2.34,0.52,1.9c2.19-0.78,6.01-2.16,7.83,0.11c1.93,2.39-0.91,5.93-2.66,7.47     c-0.98,0.86-2.2,1.68-3.47,2.03c-2.64,0.73-4.56-1.08-3.77-3.84c0.78-2.67,3.23-4.44,5.45-5.87     C200.02,90.35,199.2,88.91,198.29,89.49L198.29,89.49z"></path>
              </g>
              <g>
                <path d="M211.04,89.72c-3.82,0.56-8.49,3.1-7.47,7.72c0.84,3.79,5.25,5.46,8.63,3.98c3.26-1.43,5.17-5.43,3.98-8.83     c-1.25-3.56-5.18-5.39-8.73-4.42c-1.25,0.34-0.71,2.15,0.53,1.92c5.24-0.98,8.65,5.6,4.21,8.94c-2.25,1.69-6.2,1.05-6.87-2.06     c-0.78-3.62,3.41-5.16,6.19-5.58C212.6,91.22,212.13,89.56,211.04,89.72L211.04,89.72z"></path>
              </g>
              <g>
                <path d="M220.2,93.95c-2.66,0.65-6.03,1.76-6.68,4.82c-0.68,3.16,2.94,4.18,5.36,4.01c2.78-0.19,5.68-2.07,5.39-5.19     c-0.31-3.29-4.01-3.71-6.61-3.46c-1.19,0.12-1.24,1.91,0,1.89c1.34-0.02,3.6-0.13,4.33,1.28c1.12,2.2-2.01,3.45-3.61,3.53     c-0.77,0.04-1.78,0.03-2.45-0.41c-1.15-0.76-0.51-2.14,0.28-2.9c1.17-1.13,2.91-1.56,4.44-1.94     C221.71,95.32,221.26,93.7,220.2,93.95L220.2,93.95z"></path>
              </g>
              <g>
                <path d="M221.86,82.27c-3.47,1.06-7.89,2.75-8.48,6.91c-0.5,3.58,2.74,6.18,6.1,5.01c3.25-1.13,5.52-4.98,4.55-8.35     c-0.98-3.41-4.85-5.04-7.99-3.59c-0.94,0.44-0.28,2.04,0.71,1.69c2.02-0.71,4.41,0.41,5.08,2.51c0.73,2.29-0.87,4.99-3.02,5.82     c-3.49,1.36-4.63-2.84-2.87-5.2c1.48-1.99,4.02-2.74,6.29-3.45C223.09,83.35,222.72,82.01,221.86,82.27L221.86,82.27z"></path>
              </g>
              <g>
                <path d="M228.61,82.09c-3.15,1.67-6.34,4.33-6.03,8.25c0.25,3.19,3.17,5.22,6.26,4.46c3.38-0.83,4.95-4.35,4.07-7.58     c-1.04-3.82-4.84-5.75-8.59-5.4c-1.21,0.11-1.2,1.75,0,1.88c2.14,0.24,4.59,1.16,5.72,3.12c1.18,2.04,0.68,5.07-1.82,5.76     c-2.49,0.69-4.13-1.56-3.68-3.88c0.48-2.52,2.83-4.01,4.93-5.13C230.46,83.06,229.59,81.58,228.61,82.09L228.61,82.09z"></path>
              </g>
              <g>
                <path d="M216.75,69.71c-3.99-2.86-10.23,3.83-8.15,7.9c2.22,4.34,11.64,6.1,12.99,0.21c0.28-1.21-1.49-1.7-1.86-0.51     c-1.16,3.73-6.99,2.58-9.11,0.31c-2.86-3.06,2.19-9.48,5.69-7.15C216.78,70.77,217.2,70.03,216.75,69.71L216.75,69.71z"></path>
              </g>
              <g>
                <path d="M222.32,72.79c-1.83-2.88-5.2-4.23-8.49-3.26c-1.18,0.35-0.69,2.11,0.51,1.84c2.33-0.52,4.82,0.51,6.08,2.53     C221.16,75.11,223.08,73.99,222.32,72.79L222.32,72.79z"></path>
              </g>
              <g>
                <path d="M227.47,73.28c-2.6-1-5.93-0.12-7.34,2.4c-1.32,2.36-0.35,5.67,1.98,7.03c2.61,1.52,6.76,0.21,8.25-2.37     c1.83-3.16-1.25-5.81-4.11-6.47c-1.22-0.28-1.71,1.51-0.52,1.87c1.98,0.61,4.4,2.43,2.12,4.41c-1.51,1.31-4.15,1.91-5.67,0.35     c-3.41-3.48,1.18-7.67,5.02-6.25C227.81,74.48,228.07,73.51,227.47,73.28L227.47,73.28z"></path>
              </g>
              <g>
                <path d="M222.15,72.75c1.19-8.54,6.98-17.3,11.48-24.53c4.86-7.8,10.34-15.9,17.93-21.31c7.45-5.3,18.22-7.78,26.25-2.2     c4.19,2.92,7.1,7.75,9.32,12.26c1.75,3.56,2.48,6.6,1.41,10.56c-0.44,1.65-1.36,3-1.43,4.76c-0.24,5.9,5.53,8.7,9.72,11.44     c6.89,4.51,6.26,11.67-0.21,16.37c-3.67,2.67-8.22,4.45-12.42,6.07c-17.7,6.85-35.62,7.74-54.29,5.83     c-1.22-0.12-1.48,1.89-0.29,2.14c16.41,3.41,34.44,1.42,50.26-3.78c8.5-2.79,32.02-11.26,22.98-24.47     c-1.77-2.59-4.62-4.08-7.23-5.67c-1.88-1.14-4.24-2.58-5.33-4.58c-2.09-3.85,0.54-6.35,1.05-9.89     c0.94-6.42-3.77-13.68-7.64-18.41c-9.06-11.07-24.32-9.33-34.74-1.12c-7.3,5.76-12.79,13.88-17.52,21.78     c-4.25,7.1-10.02,16.09-10.5,24.58C220.94,73.25,222.06,73.42,222.15,72.75L222.15,72.75z"></path>
              </g>
              <g>
                <path d="M189.33,83.21c-5.72-5-8.89-11.63-11.43-18.66c-2.45-6.77-4.91-13.71-6.23-20.81c-2.83-15.17,3.2-32.4,18.97-37.73     c4.77-1.61,8.74-0.92,12.65,2.18c1.4,1.11,2.81,2.41,4.6,2.83c4.49,1.06,7.69-2.91,10.2-5.98c2.88-3.54,6.1-7.77,11.37-7.02     c3.97,0.57,6.59,5.76,8.2,8.94c3.55,7.01,8.57,18.35,4.96,26.12c-0.4,0.86,0.77,1.58,1.29,0.75c3.09-4.88,1.72-10.52,0.19-15.75     c-1.75-5.99-4.19-12.7-8.15-17.59c-2.74-3.38-6.69-5.57-11.05-3.96c-5.82,2.16-11.67,15.94-18.48,11.77     c-4.69-2.87-7.06-5.92-13.11-4.88c-5.23,0.9-10.15,3.99-13.96,7.59c-9.23,8.73-11.64,21-9.32,33.18     c1.59,8.34,4.6,16.61,7.91,24.41c2.53,5.95,5.71,11.3,10.91,15.25C189.2,84.14,189.68,83.52,189.33,83.21L189.33,83.21z"></path>
              </g>
              <g>
                <path d="M168.89,38.03c-8.42-6.83-22.66,4.9-25.29,13c-1.16,3.58-0.27,7.37-1.38,10.93c-1.41,4.52-5.4,8.14-8.33,11.69     c-5.66,6.86-11.2,13.92-16.13,21.33c-7.36,11.05-12.29,27.31-3.53,39.22c9.65,13.12,26.47,2.33,35.85-4.91     c14.81-11.43,29.72-25.18,39.99-40.96c0.79-1.21-1.07-2.69-2.02-1.56c-11.42,13.46-22.33,26.57-36.06,37.84     c-6.81,5.59-15.07,13.08-24.39,13.48c-11.95,0.51-16.28-11.11-16.01-21.25c0.25-9.51,5.24-17.46,10.59-24.96     c5.64-7.89,11.94-15.19,17.92-22.8c1.59-2.02,3.11-4.16,3.83-6.66c1.11-3.82,0.04-7.82,1.41-11.63     c2.54-7.07,15.42-17.68,22.95-11.98C168.73,39.17,169.33,38.39,168.89,38.03L168.89,38.03z"></path>
              </g>
              <g>
                <path d="M154.77,123.3c-4.36,5.03-6.52,11.29-5.84,17.96c0.38,3.66,1.69,6.92,3.46,10.1c2.53,4.54,3.98,9.17,5.83,14     c2.45,6.36,6.11,9.09,12.37,4.74c6.39-4.44,8.87-12.94,11.6-19.82c0.43-1.09-1.24-1.67-1.82-0.77     c-3.42,5.3-4.62,11.99-9.11,16.61c-3.08,3.17-6.94,5.03-9.76,0.56c-1.8-2.85-2.4-6.75-3.65-9.88c-2-5-5.66-9.14-6.74-14.51     c-1.31-6.48,0.41-13.24,4.21-18.56C155.55,123.41,155.03,123,154.77,123.3L154.77,123.3z"></path>
              </g>
              <g>
                <path d="M194.86,99.73c-6,5-8.47,12.51-10.84,19.7c-2.66,8.06-6.33,17.47-5.3,26.11c0.87,7.29,4.89,14.67,9.63,20.19     c4.89,5.69,11.09,3.9,16.03-0.74c6.46-6.06,11.42-17.35,21.76-16.94c3.45,0.14,6.5,1.66,9.96,0.54c2.71-0.88,4.76-2.9,6.61-4.98     c2.76-3.08,5.05-6.38,9.15-7.8c4.08-1.41,8.61-1.4,12.79-2.48c4.01-1.04,7.91-2.55,11.59-4.45c2.91-1.5,7.4-3.49,8.88-6.65     c2.89-6.18-5.17-13.91-9.41-17.26c-7.07-5.58-16.19-9.43-25.27-9.48c-1.28-0.01-1.65,2.08-0.31,2.3     c9.68,1.65,18.73,4.54,26.05,11.43c4.28,4.03,8.9,9.59,3,14.45c-3.72,3.06-9.11,4.94-13.67,6.27c-6.63,1.94-14.4,1.29-19.9,6.02     c-2.51,2.16-4.28,5.02-6.7,7.27c-4.17,3.89-7.78,2.04-12.76,1.77c-7.59-0.4-13.3,5.34-17.74,10.74c-2.3,2.79-4.49,5.86-7.33,8.14     c-4.66,3.74-8.49,2.78-11.86-1.69c-1.35-1.8-2.6-3.71-3.74-5.65c-2.73-4.67-4.67-9.64-4.56-15.12c0.1-4.92,1.59-9.96,2.82-14.69     c2.33-9,4.58-19.93,11.71-26.42C195.83,99.95,195.26,99.39,194.86,99.73L194.86,99.73z"></path>
              </g>
              <g>
                <path d="M184.34,78.7c-9.8,1.21-19.05,6.95-26.76,12.86c-8.33,6.38-15.65,14.22-21.03,23.25c-0.6,1.02,0.92,1.88,1.57,0.92     c5.38-7.98,11.44-15.3,18.83-21.5c7.73-6.48,17.38-13.12,27.48-14.84C184.81,79.32,184.73,78.65,184.34,78.7L184.34,78.7z"></path>
              </g>
              <g>
                <path d="M180,72.07c-4.9-7.49-16.63-6.68-23.87-3.73c-0.78,0.32-0.47,1.59,0.36,1.29c7.41-2.7,16.95-2.98,22.98,2.86     C179.74,72.75,180.22,72.41,180,72.07L180,72.07z"></path>
              </g>
              <g>
                <path d="M193.83,43.56c-3.76,6.7-2.86,15.28,2.69,20.73c0.58,0.57,1.44-0.3,0.89-0.89c-5.03-5.35-6.39-12.88-2.96-19.48     C194.66,43.51,194.06,43.16,193.83,43.56L193.83,43.56z"></path>
              </g>
              <g>
                <path d="M215.2,62.04c5.04-3.08,6.91-10.76,8.02-16.17c1.41-6.86,1.38-13.87-0.15-20.7c-0.24-1.07-1.79-0.6-1.62,0.45     c1.03,6.32,1.27,12.61,0.17,18.94c-0.97,5.55-2.64,12.91-7.01,16.73C214.21,61.64,214.74,62.32,215.2,62.04L215.2,62.04z"></path>
              </g>
              <g>
                <path d="M235.29,78.31c-1.78-13.11,8.97-21.47,19.71-26.13c0.72-0.31,0.2-1.57-0.54-1.28c-11.43,4.62-22.32,14.14-20.07,27.66     C234.49,79.15,235.37,78.89,235.29,78.31L235.29,78.31z"></path>
              </g>
              <g>
                <path d="M288.75,55.91c-6.24-0.08-11.99,2.76-15.6,7.87c-0.38,0.54,0.49,1.02,0.87,0.51c3.53-4.77,8.78-7.49,14.73-7.48     C289.33,56.82,289.33,55.92,288.75,55.91L288.75,55.91z"></path>
              </g>
              <g>
                <path d="M236.47,78.64c-0.47,2.41,3.43,2.83,5.06,2.94c4.82,0.32,9.35-1.9,13.44-4.19c0.86-0.48,0.1-1.75-0.77-1.31     c-2.58,1.29-5.14,2.7-7.92,3.51c-0.83,0.24-9.24,1.82-8.96-0.83C237.38,78.27,236.57,78.16,236.47,78.64L236.47,78.64z"></path>
              </g>
              <g>
                <path d="M227.51,109.18c7.82,1.88,15.52,8.05,15.41,16.69c-0.01,0.94,1.38,0.92,1.44,0c0.62-9.35-8.13-16.11-16.51-17.93     C227.04,107.76,226.69,108.98,227.51,109.18L227.51,109.18z"></path>
              </g>
              <g>
                <path d="M237.8,96.89c6.7,1.8,12.1,5.63,16.48,10.95c0.53,0.64,1.65-0.22,1.16-0.89c-4.21-5.79-10.37-9.66-17.28-11.39     C237.31,95.34,236.94,96.66,237.8,96.89L237.8,96.89z"></path>
              </g>
              <g>
                <path d="M205.73,107.61c-5.02,2.98-7.33,10.8-8.3,16.21c-1.17,6.57-0.42,13.27,2.85,19.13c0.52,0.93,1.86,0.11,1.41-0.82     c-2.5-5.22-3.52-10.74-2.88-16.5c0.61-5.53,2.51-13.9,7.4-17.19C206.73,108.1,206.27,107.29,205.73,107.61L205.73,107.61z"></path>
              </g>
              <g>
                <path d="M188.37,100.89c-20.22,6.14-30.41,26.96-27.48,47.14c0.13,0.93,1.76,0.72,1.65-0.22c-2.26-19.6,6.31-39.68,26.02-46.24     C188.98,101.43,188.8,100.76,188.37,100.89L188.37,100.89z"></path>
              </g>
            </g>
          </g>
        </g>
        <!-- Eco-Natural -->
        <g>
          <g id="ecoNaturalBackground" featurekey="j7RXiA-0" transform="matrix(3.243049651971721,0,0,3.243049651971721,-6.291518056800508,114.1739173272404)" fill="url(#ecoNaturalGradient)">
            <path d="M 0 -5 L 106 -5 L 106 22 L 0 22 z"></path>
          </g>
          <g id="SvgjsG6802" featurekey="j7RXiA-0" transform="matrix(3.243049651971721,0,0,3.243049651971721,-6.291518056800508,114.1739173272404)" fill="url(#SvgjsLinearGradient6811)">
            <path d="M10.6 5.84 l0 1.2 l-7.34 0 l0 5.04 l6.88 0 l0 1.2 l-6.88 0 l0 5.52 l7.66 0 l0 1.2 l-8.98 0 l0 -14.16 l8.66 0 z M17.8 10.52 q2 0 3.44 1.6 l-0.96 0.72 q-1.16 -1.24 -2.5 -1.24 q-1.56 0 -2.59 1.06 t-1.05 2.72 q0 1.66 1.04 2.71 t2.6 1.07 q1.48 0 2.5 -1.28 l0.92 0.76 q-1.34 1.58 -3.4 1.6 q-2.1 0 -3.46 -1.36 t-1.4 -3.5 q0 -2.06 1.35 -3.44 t3.51 -1.42 z M23.76 15.379999999999999 q0 1.66 1.04 2.72 t2.62 1.06 q1.64 0 2.65 -1.08 t1.01 -2.7 q0 -1.6 -1 -2.68 t-2.68 -1.1 q-1.62 0 -2.62 1.08 t-1.02 2.7 z M27.42 10.52 q2.12 0 3.48 1.38 t1.38 3.48 q0 2.14 -1.39 3.49 t-3.47 1.37 q-2.18 -0.02 -3.51 -1.4 t-1.35 -3.46 q0 -2.14 1.37 -3.49 t3.49 -1.37 z M39.16 14.719999999999999 l0 1.08 l-4.94 0 l0 -1.08 l4.94 0 z M43.66 5.84 l8.62 12.4 l0.04 0 l0 -12.4 l1.32 0 l0 14.16 l-1.7 0 l-8.62 -12.4 l-0.04 0 l0 12.4 l-1.32 0 l0 -14.16 l1.7 0 z M57.96 17.44 q0 0.76 0.61 1.24 t1.51 0.48 q1.62 0 2.41 -0.85 t0.79 -2.31 l0 -0.64 l-1.44 0 q-1.84 0 -2.86 0.56 t-1.02 1.52 z M60.68 10.52 q1.86 0 2.76 0.86 t0.92 2.4 l0 2.74 q0 2.24 0.18 3.48 l-1.12 0 q-0.12 -0.62 -0.12 -1.5 l-0.04 0 q-1 1.74 -3.22 1.74 q-1.5 0 -2.38 -0.74 t-0.9 -2 q0 -1.54 1.33 -2.32 t3.71 -0.78 l1.48 0 l0 -0.54 q0 -1.14 -0.7 -1.7 t-1.9 -0.56 q-1.6 0 -2.82 1.04 l-0.7 -0.82 q0.66 -0.64 1.63 -0.97 t1.89 -0.33 z M68.24 8.1 l1.2 0 l0 2.66 l2.64 0 l0 1.08 l-2.64 0 l0 6.04 q0 0.58 0.34 0.93 t0.94 0.35 q0.66 0 1.36 -0.32 l0.1 1.08 q-0.9 0.32 -1.58 0.32 q-1.18 0 -1.77 -0.66 t-0.59 -1.7 l0 -6.04 l-2 0 l0 -1.08 l2 0 l0 -2.66 z M77.63999999999999 20.24 q-1.76 0 -2.64 -0.99 t-0.88 -3.03 l0 -5.46 l1.2 0 l0 5.4 q0 1.5 0.57 2.25 t1.75 0.75 q1.46 0 2.32 -1 t0.88 -2.82 l0 -4.58 l1.2 0 l0 6.74 q0.04 1.02 0.1 2.5 l-1.2 0 q-0.02 -1.14 -0.08 -1.62 l-0.06 0 q-0.4 0.86 -1.27 1.36 t-1.89 0.5 z M89.46 10.52 q0.34 0 0.7 0.1 l-0.14 1.18 q-0.22 -0.08 -0.48 -0.08 q-1.46 0 -2.23 0.9 t-0.77 2.34 l0 5.04 l-1.2 0 l0 -6.74 q0 -0.2 -0.1 -2.5 l1.2 0 q0.04 1.38 0.08 1.62 q1.04 -1.86 2.94 -1.86 z M92.77999999999999 17.44 q0 0.76 0.61 1.24 t1.51 0.48 q1.62 0 2.41 -0.85 t0.79 -2.31 l0 -0.64 l-1.44 0 q-1.84 0 -2.86 0.56 t-1.02 1.52 z M95.49999999999999 10.52 q1.86 0 2.76 0.86 t0.92 2.4 l0 2.74 q0 2.24 0.18 3.48 l-1.12 0 q-0.12 -0.62 -0.12 -1.5 l-0.04 0 q-1 1.74 -3.22 1.74 q-1.5 0 -2.38 -0.74 t-0.9 -2 q0 -1.54 1.33 -2.32 t3.71 -0.78 l1.48 0 l0 -0.54 q0 -1.14 -0.7 -1.7 t-1.9 -0.56 q-1.6 0 -2.82 1.04 l-0.7 -0.82 q0.66 -0.64 1.63 -0.97 t1.89 -0.33 z M102.57999999999998 4.880000000000001 l1.2 0 l0 15.12 l-1.2 0 l0 -15.12 z"></path>
          </g>
        </g>
        <!-- senses -->
        <g>
          <g id="sensesBackground" featurekey="XxmBkf-0" transform="matrix(1.4428366845514962,0,0,1.4428366845514962,100.70144615830588,181.3429812686873)" fill="url(#sensesGradient)">
            <path d="M -10 2 L 99 2 L 99 40 L -10 40 z"></path>
          </g>
          <g id="SvgjsG6803" featurekey="XxmBkf-0" transform="matrix(1.4428366845514962,0,0,1.4428366845514962,100.70144615830588,181.3429812686873)" fill="url(#SvgjsLinearGradient6815)">
            <path d="M1.1 9.9 l0 -0.6 c0 -1.9 1.4 -3.3 3.5 -3.3 l5.5 0 l0 0.9 l-0.4 0.4 l-5.1 0 c-1.1 0 -2 0.9 -2 2 l0 0.6 c0 1.1 0.6 1.68 1.6 1.9 l3.7 0.8 c1.4 0.3 2.5 1.4 2.5 3.2 l0 0.9 c0 1.9 -1.4 3.3 -3.5 3.3 l-6 0 l0 -1.3 l6 0 c1.1 0 2 -0.9 2 -2 l0 -0.9 c0 -1.1 -0.6 -1.68 -1.6 -1.9 l-3.7 -0.8 c-1.4 -0.3 -2.5 -1.4 -2.5 -3.2 z  M16.92 20 l0 -14 l9.1 0 l0 0.9 l-0.4 0.4 l-7.2 0 l0 4.9 l5.7 0 l0 1.3 l-5.7 0 l0 5.2 l7.6 0 l0 1.3 l-9.1 0 z M40.44 20 l-6.8 -11.5 l-0.1 0 l0.2 2.6 l0 8.9 l-1.5 0 l0 -14 l1.6 0 l6.8 11.5 l0.1 0 l-0.2 -2.6 l0 -8.9 l1.5 0 l0 14 l-1.6 0 z M48.760000000000005 9.9 l0 -0.6 c0 -1.9 1.4 -3.3 3.5 -3.3 l5.5 0 l0 0.9 l-0.4 0.4 l-5.1 0 c-1.1 0 -2 0.9 -2 2 l0 0.6 c0 1.1 0.6 1.68 1.6 1.9 l3.7 0.8 c1.4 0.3 2.5 1.4 2.5 3.2 l0 0.9 c0 1.9 -1.4 3.3 -3.5 3.3 l-6 0 l0 -1.3 l6 0 c1.1 0 2 -0.9 2 -2 l0 -0.9 c0 -1.1 -0.6 -1.68 -1.6 -1.9 l-3.7 -0.8 c-1.4 -0.3 -2.5 -1.4 -2.5 -3.2 z  M64.58000000000001 20 l0 -14 l9.1 0 l0 0.9 l-0.4 0.4 l-7.2 0 l0 4.9 l5.7 0 l0 1.3 l-5.7 0 l0 5.2 l7.6 0 l0 1.3 l-9.1 0 z M79 9.9 l0 -0.6 c0 -1.9 1.4 -3.3 3.5 -3.3 l5.5 0 l0 0.9 l-0.4 0.4 l-5.1 0 c-1.1 0 -2 0.9 -2 2 l0 0.6 c0 1.1 0.6 1.68 1.6 1.9 l3.7 0.8 c1.4 0.3 2.5 1.4 2.5 3.2 l0 0.9 c0 1.9 -1.4 3.3 -3.5 3.3 l-6 0 l0 -1.3 l6 0 c1.1 0 2 -0.9 2 -2 l0 -0.9 c0 -1.1 -0.6 -1.68 -1.6 -1.9 l-3.7 -0.8 c-1.4 -0.3 -2.5 -1.4 -2.5 -3.2 z "></path>
          </g>
        </g>
      </svg>