<svg 
  xmlns="http://www.w3.org/2000/svg" 
  width="30"
  height="30"
  id="flag-icons-gb" 
  viewBox="0 0 48 48">
    <defs id="SvgjsDefs6800">
        <linearGradient id="SvgjsLinearGradient6807">
            <stop id="SvgjsStop6808" stop-color="#8f5e25" offset="0"></stop>
            <stop id="SvgjsStop6809" stop-color="#fbf4a1" offset="0.5"></stop>
            <stop id="SvgjsStop6810" stop-color="#8f5e25" offset="1"></stop>
        </linearGradient>
    </defs>
    <path d="M 0 0 h 42 v 42 h -42 z" fill="none"/>
    <path fill="url(#SvgjsLinearGradient6807)" d="M 20.99 1 c -11.05 0 -19.99 8.95 -19.99 20 s 8.94 20 19.99 20 c 11.05 0 20.01 -8.95 20.01 -20 s -8.96 -20 -20.01 -20 z m 13.85 12 h -5.9 c -0.65 -2.5 -1.56 -4.9 -2.76 -7.12 c 3.68 1.26 6.74 3.81 8.66 7.12 z m -13.84 -7.93 c 1.67 2.4 2.97 5.07 3.82 7.93 h -7.64 c 0.85 -2.86 2.15 -5.53 3.82 -7.93 z m -15.48 19.93 c -0.33 -1.28 -0.52 -2.62 -0.52 -4 s 0.19 -2.72 0.52 -4 h 6.75 c -0.16 1.31 -0.27 2.64 -0.27 4 c 0 1.36 0.11 2.69 0.28 4 h -6.76 z m 1.63 4 h 5.9 c 0.65 2.5 1.56 4.9 2.76 7.13 c -3.68 -1.26 -6.74 -3.82 -8.66 -7.13 z m 5.9 -16 h -5.9 c 1.92 -3.31 4.98 -5.87 8.66 -7.13 c -1.2 2.23 -2.11 4.63 -2.76 7.13 z m 7.95 23.93 c -1.66 -2.4 -2.96 -5.07 -3.82 -7.93 h 7.64 c -0.86 2.86 -2.16 5.53 -3.82 7.93 z m 4.68 -11.93 h -9.36 c -0.19 -1.31 -0.32 -2.64 -0.32 -4 c 0 -1.36 0.13 -2.69 0.32 -4 h 9.36 c 0.19 1.31 0.32 2.64 0.32 4 c 0 1.36 -0.13 2.69 -0.32 4 z m 0.51 11.12 c 1.2 -2.23 2.11 -4.62 2.76 -7.12 h 5.9 c -1.93 3.31 -4.99 5.86 -8.66 7.12 z m 3.53 -11.12 c 0.16 -1.31 0.28 -2.64 0.28 -4 c 0 -1.36 -0.11 -2.69 -0.28 -4 h 6.75 c 0.33 1.28 0.53 2.62 0.53 4 s -0.19 2.72 -0.53 4 h -6.75 z"/>
</svg>